PathFileType	4	(X/Y/Z)	D:\TRACE\v60_Jaco2_6-2-23\JustArmDRS_Motion3_2-v60.trc
DataRate	CameraRate	NumFrames	NumMarkers	Units	OrigDataRate	OrigDataStartFrame	OrigNumFrames
100.00	100.00	      41	9	mm	100.00	6126	      7000
Frame#	Time	front left toe			Front right toe			aft left toe			aft right toe			Arm			FL body			FR body			AL Body			AR Body			
		X1	Y1	Z1	X2	Y2	Z2	X3	Y3	Z3	X4	Y4	Z4	X5	Y5	Z5	X6	Y6	Z6	X7	Y7	Z7	X8	Y8	Z8	X9	Y9	Z9	

6126	61.250	-180.25125	24.24381	-232.07059	218.11273	22.10169	-166.88133	-269.59128	11.19879	405.85034	139.85025	8.54305	420.74924	39.99084	1106.08215	-591.56317	-44.35301	592.78699	-333.76639	112.90084	592.55450	-312.63727	-162.01993	567.88416	603.11719	-11.59401	559.10400	622.76849	
6127	61.260	-180.28110	24.21406	-232.11241	218.02594	22.05225	-166.93108	-269.58829	11.23629	405.85834	139.68752	8.55999	420.70950	39.95354	1105.96570	-591.67578	-44.12830	592.48462	-333.50696	112.85464	592.51007	-312.73648	-162.06956	567.92181	603.03973	-11.66663	559.18463	622.72052	
6128	61.270	-180.29919	24.14952	-232.14662	218.10020	22.04440	-166.93301	-269.60699	11.27528	405.85651	139.80275	8.69411	420.69116	39.86053	1105.78870	-591.81311	-44.22929	592.49060	-333.64651	112.85341	592.46143	-312.79333	-162.07237	567.95770	602.96661	-11.68869	559.29358	622.63855	
6129	61.280	-180.30196	24.09435	-232.17944	218.08360	22.03709	-166.98996	-269.39880	11.41532	405.66852	139.83507	8.79044	420.62503	39.77959	1105.71399	-591.99792	-44.31242	592.50739	-333.82825	112.77145	592.42572	-312.94717	-162.04024	568.07220	602.88208	-11.60705	559.41382	622.54810	
6130	61.290	-180.25531	24.01317	-232.18436	218.05872	21.97379	-167.08670	-269.34985	11.44735	405.69391	139.85408	8.84631	420.66888	39.73148	1105.54651	-592.15497	-44.54153	592.75421	-334.22031	112.80872	592.39258	-313.10172	-162.02536	568.26025	602.75684	-11.60867	559.52606	622.40961	
6131	61.300	-180.25574	23.96623	-232.22693	218.12196	21.95260	-167.03293	-269.38721	11.57180	405.58304	139.86491	8.86810	420.60999	39.59768	1105.44092	-592.34515	-44.56232	592.73187	-334.37146	112.80368	592.34698	-313.27316	-161.98897	568.36353	602.68298	-11.63581	559.58594	622.29169	
6132	61.310	-180.25938	23.89758	-232.24402	218.05577	21.88502	-167.16095	-269.37088	11.61906	405.55676	139.89369	8.95580	420.61230	39.55690	1105.29028	-592.63635	-44.58837	592.66974	-334.49319	112.78247	592.29785	-313.45813	-161.97205	568.49023	602.59717	-11.65660	559.65051	622.25024	
6133	61.320	-180.23851	23.78056	-232.27312	217.97336	21.74933	-167.28145	-269.30707	11.65701	405.53549	139.92729	8.98974	420.59509	39.71293	1105.12585	-592.94623	-44.58334	592.56354	-334.64496	112.32341	592.33447	-313.41144	-161.97731	568.63098	602.46777	-11.60094	559.75244	622.18207	
6134	61.330	-180.18852	23.68701	-232.31226	217.89244	21.65741	-167.35889	-269.52066	11.66231	405.63672	140.04883	9.06911	420.58673	39.77634	1105.00488	-593.36951	-44.60530	592.43475	-334.85071	112.35204	592.29407	-313.48911	-161.86215	568.76147	602.30377	-11.61995	559.92615	622.04028	
6135	61.340	-180.11775	23.59851	-232.36603	217.95959	21.65886	-167.47527	-269.50586	11.81880	405.59726	140.03525	9.08337	420.54706	39.74300	1104.86011	-593.67474	-44.54743	592.32983	-334.93613	112.34718	592.25397	-313.63165	-161.92029	568.86584	602.20685	-11.73679	560.15521	621.86346	
6136	61.350	-180.04250	23.53761	-232.38379	218.15784	21.67407	-167.41682	-269.07541	11.94195	405.44226	140.07903	9.13516	420.56119	39.79227	1104.71375	-593.88086	-44.57109	592.19165	-335.07471	112.44257	592.15979	-313.85736	-161.90645	568.97424	602.06671	-11.64082	560.30847	621.65759	
6137	61.360	-179.88271	23.44366	-232.42458	218.43402	21.63704	-167.43541	-269.21301	11.99559	405.56625	140.09207	9.17583	420.46683	39.76727	1104.55188	-594.02869	-44.52044	592.00958	-335.21396	112.46927	592.07458	-314.10510	-161.87430	569.12134	601.91827	-11.57391	560.42535	621.43842	
6138	61.370	-179.66577	23.28544	-232.51115	218.54965	21.42353	-167.45825	-269.02051	12.05550	405.60834	140.18909	9.29555	420.37656	39.74093	1104.35352	-594.24194	-44.50301	591.88837	-335.40155	112.52463	591.89862	-314.27667	-161.93428	569.23553	601.69830	-11.67826	560.60004	621.19141	
6139	61.380	-179.54971	23.23531	-232.60396	218.86635	21.39008	-167.44086	-268.99228	12.13906	405.55527	140.27444	9.35191	420.25140	39.67741	1104.19202	-594.57770	-43.99649	591.43964	-335.12946	112.71609	591.79492	-314.41254	-161.96234	569.39392	601.52386	-11.73181	560.74841	621.00647	
6140	61.390	-179.50133	23.20814	-232.63026	219.12982	21.35157	-167.40446	-268.95532	12.29215	405.55243	140.30748	9.53805	420.18723	39.64518	1104.05566	-595.04565	-43.95218	591.35938	-335.36398	112.87598	591.62585	-314.49008	-162.01996	569.51288	601.31586	-11.75506	560.89691	620.80988	
6141	61.400	-179.44513	23.14101	-232.69769	219.29359	21.40958	-167.39203	-268.97589	12.46176	405.46954	140.44995	9.73502	420.08057	39.66089	1103.92407	-595.42261	-43.91046	591.33240	-335.66174	112.99763	591.51086	-314.58832	-161.82881	569.66278	601.03693	-11.65462	561.10999	620.62848	
6142	61.410	-179.39966	23.11649	-232.75172	219.36023	21.33890	-167.36401	-268.92096	12.58733	405.39371	140.46431	9.85732	419.94629	39.60938	1103.66760	-595.90338	-43.90200	591.28082	-335.93469	113.17727	591.41290	-314.67685	-161.74750	569.80029	600.86023	-11.48549	561.22974	620.56909	
6143	61.420	-179.33234	23.05622	-232.79703	219.46501	21.31871	-167.35254	-268.88571	12.72039	405.35736	140.45724	9.98759	419.90750	39.67412	1103.53381	-596.10406	-44.07654	591.33569	-336.45724	113.38889	591.34918	-314.92535	-161.67128	570.00818	600.73346	-11.45620	561.34204	620.49689	
6144	61.430	-179.22971	22.97907	-232.86795	219.50648	21.23202	-167.40517	-268.75491	12.80638	405.33813	140.57596	10.05410	419.86563	39.75608	1103.35901	-596.28070	-44.02042	591.25671	-336.62344	113.38631	591.31006	-315.13522	-161.56313	570.20276	600.58673	-11.47288	561.45001	620.33099	
6145	61.440	-179.15997	22.92603	-232.93564	219.77408	21.14652	-167.41528	-268.64496	12.91981	405.28491	140.72858	10.16853	419.81189	40.00143	1103.15051	-596.47729	-43.65061	590.97559	-336.33057	113.46934	591.22693	-315.32385	-161.38319	570.39215	600.49121	-11.33633	561.63147	620.16992	
6146	61.450	-179.05382	22.86471	-233.00124	219.90216	21.09664	-167.49231	-268.50986	12.99732	405.20236	140.87851	10.37025	419.78680	40.14482	1102.98621	-596.78644	-43.65474	590.91406	-336.54678	113.44624	591.15167	-315.57703	-161.49118	570.56732	600.34692	-11.15888	561.85870	620.06659	
6147	61.460	-178.46790	22.36865	-233.20554	220.00854	21.06216	-167.57562	-268.34094	13.08209	405.27057	141.04057	10.48586	419.75699	40.42788	1102.83374	-597.15869	-43.58293	590.85785	-336.68192	113.47449	591.07446	-315.95575	-161.43513	570.70081	600.17181	-11.06955	562.06628	619.89136	
6148	61.470	-178.38618	22.31653	-233.24847	220.11513	21.00672	-167.54018	-268.30527	13.22517	405.21100	141.13084	10.59554	419.77545	40.52399	1102.71472	-597.51239	-43.47440	590.79639	-336.82053	113.58652	590.96967	-316.19998	-161.22318	570.63568	600.08429	-11.05026	562.14465	619.70215	
6149	61.480	-178.37932	22.29406	-233.29361	220.22595	20.96571	-167.53029	-268.29150	13.27236	405.15671	141.23138	10.73328	419.76059	40.48272	1102.59998	-597.72949	-43.37537	590.67529	-336.91226	113.29199	590.96521	-316.17123	-160.93698	570.61523	599.82654	-10.92040	562.19659	619.52124	
6150	61.490	-178.48776	22.58704	-233.16991	220.29884	20.97147	-167.53651	-268.13220	13.27766	405.16812	141.35835	10.87913	419.77777	40.54098	1102.48010	-597.92847	-43.28060	590.54663	-337.08051	113.42925	590.87646	-316.22690	-160.77382	570.71326	599.67139	-10.83428	562.26294	619.36792	
6151	61.500	-178.45674	22.58950	-233.24400	220.33195	20.99972	-167.57851	-268.04648	13.39531	405.11362	141.67862	10.98228	419.78690	40.66155	1102.37439	-598.12555	-43.14403	590.47119	-337.14401	113.70243	590.75232	-316.30869	-160.61128	570.82300	599.47217	-10.62942	562.37476	619.18298	
6152	61.510	-178.35304	22.56297	-233.28828	220.36363	20.95723	-167.52338	-267.91992	13.45461	405.08679	141.87131	11.11839	419.84985	40.78914	1102.23083	-598.32513	-42.88754	590.34784	-337.24908	113.88739	590.63983	-316.42603	-160.47865	570.93329	599.31610	-10.54459	562.46539	619.07910	
6153	61.520	-178.29704	22.54709	-233.32076	220.44255	20.97209	-167.55766	-267.84698	13.52767	405.01688	141.89433	11.16104	419.80176	40.97097	1102.10938	-598.59747	-42.63033	590.25415	-337.37766	114.09653	590.56842	-316.52698	-160.42874	571.05621	599.23114	-10.38239	562.54480	618.90393	
6154	61.530	-178.26700	22.51683	-233.34380	220.56474	20.91535	-167.62312	-267.81873	13.59039	404.92828	142.06570	11.27121	419.84848	41.23881	1101.93665	-598.89453	-42.85511	590.44830	-337.91165	114.28043	590.48651	-316.55139	-160.36269	571.22601	599.18048	-10.30313	562.71191	618.76538	
6155	61.540	-178.23746	22.48830	-233.36330	220.56645	20.84146	-167.76936	-266.20767	12.85748	404.93466	142.09209	11.27796	419.78351	41.45709	1101.81812	-599.12689	-42.73026	590.41644	-338.05701	114.35463	590.43512	-316.61227	-160.20361	571.42328	599.13763	-10.20514	562.82788	618.64337	
6156	61.550	-178.19910	22.46584	-233.37845	220.67130	20.81825	-167.78435	-266.16049	12.96993	404.94244	142.23297	11.40952	419.84103	41.61238	1101.67200	-599.36493	-42.59986	590.34302	-338.13739	114.48251	590.39594	-316.68829	-160.18649	571.58984	599.04889	-10.09214	562.92316	618.60559	
6157	61.560	-178.14546	22.39256	-233.42915	220.69469	20.68166	-167.87799	-267.55997	13.76005	404.87341	142.30846	11.45659	419.80505	41.70608	1101.60791	-599.54858	-42.52851	590.32233	-338.25119	114.48991	590.36292	-316.83618	-160.04521	571.72223	599.01556	-9.94877	562.95795	618.53345	
6158	61.570	-178.08507	22.38042	-233.44475	220.64288	20.59736	-168.01692	-267.49448	13.82690	404.86179	142.32307	11.45737	419.80167	41.82608	1101.53577	-599.67639	-42.51328	590.34741	-338.41415	114.82635	590.30524	-317.14633	-159.93900	571.80090	598.93811	-9.76868	563.05774	618.43085	
6159	61.580	-178.02643	22.34669	-233.48112	220.75104	20.59395	-167.96004	-267.07971	13.88924	404.68582	142.36275	11.51661	419.79437	41.98822	1101.47083	-599.80756	-42.39792	590.27386	-338.57156	114.90652	590.23914	-317.30536	-159.86804	571.89294	598.82556	-9.58297	563.19257	618.27661	
6160	61.590	-177.97034	22.27640	-233.49460	220.79767	20.53732	-168.05548	-267.07529	13.94866	404.64087	142.53575	11.60600	419.82587	42.15184	1101.38513	-599.98651	-42.23874	590.21686	-338.68561	115.05525	590.12720	-317.40515	-159.81517	572.02869	598.69647	-9.49274	563.26849	618.22839	
6161	61.600	-177.93907	22.24021	-233.52211	220.79291	20.50167	-168.11018	-267.38162	13.98299	404.71609	142.53966	11.63359	419.84146	42.34034	1101.29150	-600.18451	-42.07104	590.17535	-338.77307	115.31242	590.05853	-317.55338	-159.75500	572.08716	598.56006	-9.38995	563.30884	618.07037	
6162	61.610	-177.85844	22.19974	-233.55400	220.84804	20.50540	-168.12764	-267.29602	14.00997	404.71942	142.62927	11.66632	419.82013	42.56681	1101.24622	-600.44257	-41.91342	590.19537	-338.85413	115.49623	590.00183	-317.65314	-159.73204	572.13892	598.49292	-9.34131	563.48956	618.10779	
6163	61.620	-177.84683	22.19852	-233.55040	220.80229	20.43122	-168.14671	-267.03937	14.18815	404.50418	142.69150	11.74022	419.85416	42.78200	1101.13965	-600.61884	-41.78920	590.12878	-338.91266	115.18945	589.99329	-317.54483	-159.71806	572.17120	598.37524	-9.21719	563.56818	618.04333	
6164	61.630	-177.84309	22.19562	-233.59900	220.84781	20.42571	-168.10175	-267.03278	14.24794	404.46948	142.70001	11.71071	419.83124	42.95843	1101.09167	-600.70074	-41.68658	590.09918	-339.00595	115.29204	590.00055	-317.65460	-159.75755	572.23969	598.27527	-9.20492	563.61841	617.96521	
6165	61.640	-177.86960	22.18080	-233.60139	220.83250	20.38819	-168.17876	-267.34137	14.21773	404.59067	142.66557	11.73794	419.83258	43.12336	1101.00720	-600.80963	-41.58689	590.07605	-339.06589	115.39392	589.91345	-317.67825	-159.72035	572.22375	598.12299	-9.15933	563.65796	617.91260	
6166	61.650	-177.84299	22.16384	-233.60976	220.84953	20.41594	-168.18704	-267.27457	14.23522	404.57303	142.70901	11.76690	419.83926	43.38375	1100.92859	-600.87280	-41.55049	590.03644	-339.11331	115.53823	589.83069	-317.71518	-159.68352	572.23535	598.05920	-9.08819	563.68384	617.84174	
